<svg width="624" height="166" viewBox="0 0 624 166" fill="none" xmlns="http://www.w3.org/2000/svg">
<path d="M623.407 69.6094H616.704V1.35938H623.407V69.6094Z" fill="black"/>
<path d="M607.985 69.6094H577.235V1.35938H583.985V63H607.985V69.6094Z" fill="black"/>
<path d="M534.813 37.3594V63.0938H544.235C549.797 63.0938 553.891 62.0469 556.516 59.9531C559.141 57.8594 560.454 54.6406 560.454 50.2969C560.454 45.9531 559.11 42.7188 556.422 40.5938C553.735 38.4375 549.672 37.3594 544.235 37.3594H534.813ZM534.813 7.875V30.8438H538.844C545.438 30.8438 550.063 29.9375 552.719 28.125C555.375 26.2812 556.704 23.2812 556.704 19.125C556.704 15.25 555.422 12.4062 552.86 10.5938C550.297 8.78125 546.204 7.875 540.579 7.875H534.813ZM528.391 1.35938H541.094C548.813 1.35938 554.485 2.82812 558.11 5.76562C561.735 8.67188 563.547 13.2188 563.547 19.4062C563.547 22.5 562.938 25.1562 561.719 27.375C560.532 29.5625 558.704 31.3906 556.235 32.8594C559.891 34.3594 562.641 36.5 564.485 39.2812C566.36 42.0625 567.297 45.4531 567.297 49.4531C567.297 56.3594 565.375 61.4531 561.532 64.7344C557.719 67.9844 551.704 69.6094 543.485 69.6094H528.391V1.35938Z" fill="black"/>
<path d="M515.688 69.6094H508.985V1.35938H515.688V69.6094Z" fill="black"/>
<path d="M457.141 69.6094H450.391V1.35938H457.141V31.9688H489.579V1.35938H496.282V69.6094H489.579V38.4844H457.141V69.6094Z" fill="black"/>
<path d="M398.641 36.8906H441.063C441.063 41.7344 440.125 46.2031 438.25 50.2969C436.407 54.3594 433.766 58.0625 430.329 61.4062C423.766 67.7812 415.672 70.9688 406.047 70.9688C396.204 70.9688 387.954 67.5312 381.297 60.6562C374.672 53.7812 371.36 45.25 371.36 35.0625C371.36 30.2812 372.25 25.75 374.032 21.4688C375.844 17.1875 378.485 13.3594 381.954 9.98438C385.422 6.57812 389.204 4.0625 393.297 2.4375C397.422 0.8125 401.954 0 406.891 0C413.485 0 419.407 1.60938 424.657 4.82812C429.938 8.01562 434.188 12.5781 437.407 18.5156H429.157C425.969 14.4219 422.532 11.4062 418.844 9.46875C415.157 7.5 411.047 6.51562 406.516 6.51562C398.735 6.51562 392.11 9.32812 386.641 14.9531C381.204 20.5469 378.485 27.2812 378.485 35.1562C378.485 43.5312 381.188 50.5156 386.594 56.1094C392 61.7031 398.672 64.5 406.61 64.5C412.86 64.5 418.454 62.5 423.391 58.5C428.36 54.5 431.594 49.3125 433.094 42.9375H398.641V36.8906Z" fill="black"/>
<path d="M288.719 69.6094H281.641L308.125 1.35938H316.188L342.579 69.6094H335.407L327.25 48.1875H296.875L288.719 69.6094ZM324.907 42.0469L311.969 7.78125L299.219 42.0469H324.907Z" fill="black"/>
<path d="M211.422 69.6094V1.35938H221.313L244.938 60.7031L268.469 1.35938H278.36V69.6094H271.938V9.32812L247.938 69.6094H241.891L217.891 9.32812V69.6094H211.422Z" fill="black"/>
<path d="M169.61 31.9688H198.297V38.7188H169.61V63H198.297V69.6094H162.86V1.35938H198.297V8.0625H169.61V31.9688Z" fill="black"/>
<path d="M144.157 61.4531L143.36 1.35938H150.016V69.6094H141.954L104.5 9.42188L105.25 69.6094H98.6411V1.35938H106.704L144.157 61.4531Z" fill="black"/>
<path d="M86.1255 69.6094H79.4224V1.35938H86.1255V69.6094Z" fill="black"/>
<path d="M61.7505 19.0312C58.7505 14.875 55.3286 11.7812 51.4849 9.75C47.6724 7.6875 43.3599 6.65625 38.5474 6.65625C30.9849 6.65625 24.5005 9.48438 19.0942 15.1406C13.688 20.7656 10.9849 27.4375 10.9849 35.1562C10.9849 43.375 13.6567 50.3281 19.0005 56.0156C24.3755 61.6719 30.8911 64.5 38.5474 64.5C43.2349 64.5 47.4849 63.5156 51.2974 61.5469C55.1099 59.5781 58.438 56.6406 61.2817 52.7344H69.2505C66.1567 58.5469 61.9692 63.0469 56.688 66.2344C51.4067 69.3906 45.5161 70.9688 39.0161 70.9688C29.0161 70.9688 20.6567 67.5469 13.938 60.7031C7.21924 53.8281 3.85986 45.2812 3.85986 35.0625C3.85986 30.2812 4.75049 25.75 6.53174 21.4688C8.34424 17.1875 11.0161 13.3281 14.5474 9.89062C17.7661 6.67188 21.3911 4.21875 25.4224 2.53125C29.4849 0.84375 33.8911 0 38.6411 0C45.4224 0 51.5161 1.64062 56.9224 4.92188C62.3286 8.20312 66.6255 12.9062 69.813 19.0312H61.7505Z" fill="black"/>
<path d="M370.664 114.033C370.622 114.844 370.579 115.719 370.536 116.657C370.494 117.553 370.472 118.535 370.472 119.601C370.472 120.455 370.472 121.543 370.472 122.865C370.472 124.188 370.472 125.511 370.472 126.833C370.472 128.113 370.472 129.159 370.472 129.969C370.472 133.809 370.323 137.073 370.024 139.761C369.768 142.449 369.363 144.753 368.808 146.673C368.296 148.551 367.614 150.215 366.76 151.665C365.907 153.116 364.904 154.524 363.752 155.889C362.387 157.511 360.808 158.94 359.016 160.177C357.267 161.372 355.475 162.375 353.64 163.185C351.806 164.039 350.099 164.721 348.52 165.233L344.36 160.817C347.304 160.092 350.078 159.068 352.68 157.745C355.326 156.38 357.651 154.567 359.656 152.305C360.808 150.983 361.726 149.639 362.408 148.273C363.134 146.865 363.667 145.308 364.008 143.601C364.392 141.895 364.648 139.911 364.776 137.649C364.904 135.388 364.968 132.743 364.968 129.713C364.968 128.86 364.968 127.793 364.968 126.513C364.968 125.233 364.968 123.953 364.968 122.673C364.968 121.351 364.968 120.327 364.968 119.601C364.968 118.535 364.926 117.553 364.84 116.657C364.798 115.719 364.734 114.844 364.648 114.033H370.664ZM340.968 114.545C340.926 115.143 340.862 115.868 340.776 116.721C340.734 117.575 340.712 118.385 340.712 119.153C340.712 119.452 340.712 120.135 340.712 121.201C340.712 122.225 340.712 123.463 340.712 124.913C340.712 126.364 340.712 127.9 340.712 129.521C340.712 131.143 340.712 132.721 340.712 134.257C340.712 135.751 340.712 137.052 340.712 138.161C340.712 139.271 340.712 140.06 340.712 140.529C340.712 141.34 340.734 142.215 340.776 143.153C340.862 144.049 340.926 144.796 340.968 145.393H335.08C335.166 144.881 335.23 144.177 335.272 143.281C335.358 142.343 335.4 141.404 335.4 140.465C335.4 140.039 335.4 139.271 335.4 138.161C335.4 137.009 335.4 135.687 335.4 134.193C335.4 132.7 335.4 131.143 335.4 129.521C335.4 127.9 335.4 126.364 335.4 124.913C335.4 123.463 335.4 122.225 335.4 121.201C335.4 120.135 335.4 119.452 335.4 119.153C335.4 118.599 335.379 117.852 335.336 116.913C335.294 115.932 335.23 115.143 335.144 114.545H340.968Z" fill="black"/>
<path d="M305.385 109.425C305.897 110.151 306.473 111.025 307.113 112.049C307.753 113.073 308.371 114.097 308.969 115.121C309.566 116.103 310.057 117.02 310.441 117.873L306.921 119.409C306.494 118.556 305.982 117.617 305.385 116.593C304.83 115.569 304.233 114.567 303.593 113.585C302.995 112.561 302.419 111.665 301.865 110.897L305.385 109.425ZM313.577 107.761C314.131 108.487 314.729 109.361 315.369 110.385C316.009 111.367 316.627 112.391 317.225 113.457C317.865 114.481 318.398 115.399 318.825 116.209L315.305 117.745C314.579 116.423 313.747 114.951 312.809 113.329C311.87 111.708 310.953 110.343 310.057 109.233L313.577 107.761ZM311.145 120.945C310.931 121.372 310.739 121.863 310.569 122.417C310.441 122.929 310.313 123.505 310.185 124.145C309.843 125.809 309.395 127.665 308.841 129.713C308.286 131.761 307.603 133.873 306.793 136.049C306.025 138.183 305.107 140.252 304.041 142.257C303.017 144.263 301.886 146.097 300.649 147.761C298.686 150.236 296.489 152.54 294.057 154.673C291.667 156.807 288.937 158.727 285.865 160.433C282.835 162.14 279.358 163.612 275.433 164.849L271.081 160.049C275.219 159.025 278.803 157.745 281.833 156.209C284.905 154.673 287.593 152.945 289.897 151.025C292.201 149.063 294.249 146.951 296.041 144.689C297.577 142.727 298.899 140.529 300.009 138.097C301.161 135.623 302.099 133.148 302.825 130.673C303.593 128.156 304.126 125.873 304.425 123.825C303.785 123.825 302.633 123.825 300.969 123.825C299.347 123.825 297.406 123.825 295.145 123.825C292.883 123.825 290.515 123.825 288.041 123.825C285.566 123.825 283.198 123.825 280.937 123.825C278.718 123.825 276.777 123.825 275.113 123.825C273.449 123.825 272.297 123.825 271.657 123.825C270.419 123.825 269.246 123.847 268.137 123.889C267.07 123.932 266.131 123.975 265.321 124.017V118.321C265.918 118.407 266.558 118.492 267.241 118.577C267.966 118.62 268.713 118.663 269.481 118.705C270.291 118.748 271.038 118.769 271.721 118.769C272.233 118.769 273.129 118.769 274.409 118.769C275.731 118.769 277.31 118.769 279.145 118.769C280.979 118.769 282.921 118.769 284.969 118.769C287.017 118.769 289.065 118.769 291.113 118.769C293.161 118.769 295.059 118.769 296.809 118.769C298.601 118.769 300.115 118.769 301.353 118.769C302.59 118.769 303.401 118.769 303.785 118.769C304.297 118.769 304.851 118.748 305.449 118.705C306.046 118.663 306.643 118.577 307.241 118.449L311.145 120.945Z" fill="black"/>
<path d="M238.825 114.865C239.379 115.591 240.019 116.551 240.745 117.745C241.513 118.94 242.259 120.156 242.985 121.393C243.71 122.631 244.307 123.761 244.777 124.785L241.129 126.449C240.617 125.34 240.041 124.209 239.401 123.057C238.761 121.863 238.099 120.689 237.417 119.537C236.734 118.385 236.03 117.319 235.305 116.337L238.825 114.865ZM247.209 111.793C247.806 112.519 248.467 113.457 249.193 114.609C249.918 115.761 250.665 116.956 251.433 118.193C252.201 119.431 252.841 120.561 253.353 121.585L249.705 123.249C249.15 122.097 248.531 120.945 247.849 119.793C247.166 118.641 246.462 117.511 245.737 116.401C245.054 115.292 244.35 114.268 243.625 113.329L247.209 111.793ZM211.497 113.905C212.435 114.417 213.545 115.1 214.825 115.953C216.105 116.764 217.427 117.617 218.793 118.513C220.158 119.367 221.417 120.199 222.569 121.009C223.763 121.777 224.702 122.417 225.385 122.929L222.377 127.345C221.609 126.748 220.627 126.044 219.433 125.233C218.281 124.423 217.043 123.591 215.721 122.737C214.441 121.841 213.161 121.009 211.881 120.241C210.643 119.431 209.555 118.748 208.617 118.193L211.497 113.905ZM201.897 159.665C204.243 159.239 206.654 158.684 209.129 158.001C211.603 157.319 214.057 156.487 216.489 155.505C218.921 154.524 221.203 153.436 223.337 152.241C226.878 150.193 230.163 147.932 233.193 145.457C236.222 142.94 238.953 140.273 241.385 137.457C243.817 134.641 245.886 131.74 247.593 128.753L250.665 134.065C247.891 138.332 244.371 142.471 240.105 146.481C235.838 150.449 231.145 153.927 226.025 156.913C223.891 158.151 221.545 159.303 218.985 160.369C216.467 161.393 213.971 162.289 211.497 163.057C209.065 163.868 206.846 164.465 204.841 164.849L201.897 159.665ZM201.833 128.305C202.771 128.817 203.902 129.457 205.225 130.225C206.547 130.993 207.891 131.804 209.257 132.657C210.622 133.511 211.881 134.321 213.033 135.089C214.227 135.815 215.166 136.433 215.849 136.945L212.969 141.425C212.158 140.828 211.155 140.145 209.961 139.377C208.809 138.609 207.571 137.799 206.249 136.945C204.926 136.092 203.625 135.303 202.345 134.577C201.065 133.809 199.934 133.169 198.953 132.657L201.833 128.305Z" fill="black"/>
<path d="M188.456 122.033C188.158 122.375 187.859 122.716 187.56 123.057C187.262 123.356 187.027 123.676 186.856 124.017C185.662 125.98 184.211 128.113 182.504 130.417C180.84 132.721 178.942 135.089 176.808 137.521C174.675 139.953 172.35 142.343 169.832 144.689C167.358 147.036 164.691 149.233 161.832 151.281L157.864 147.761C160.467 145.969 162.899 144.028 165.16 141.937C167.422 139.847 169.491 137.735 171.368 135.601C173.288 133.425 174.952 131.356 176.36 129.393C177.811 127.431 178.942 125.681 179.752 124.145C178.942 124.145 177.726 124.145 176.104 124.145C174.483 124.145 172.606 124.145 170.472 124.145C168.339 124.145 166.078 124.145 163.688 124.145C161.342 124.145 158.995 124.145 156.648 124.145C154.344 124.145 152.19 124.145 150.184 124.145C148.179 124.145 146.451 124.145 145 124.145C143.592 124.145 142.632 124.145 142.12 124.145C141.31 124.145 140.478 124.167 139.624 124.209C138.771 124.252 137.982 124.295 137.256 124.337C136.574 124.38 136.019 124.444 135.592 124.529V118.769C136.19 118.855 136.851 118.94 137.576 119.025C138.302 119.111 139.048 119.175 139.816 119.217C140.627 119.26 141.395 119.281 142.12 119.281C142.59 119.281 143.507 119.281 144.872 119.281C146.28 119.281 147.987 119.281 149.992 119.281C151.998 119.281 154.152 119.281 156.456 119.281C158.803 119.281 161.171 119.281 163.56 119.281C165.992 119.281 168.296 119.281 170.472 119.281C172.691 119.281 174.654 119.281 176.36 119.281C178.067 119.281 179.368 119.281 180.264 119.281C182.099 119.281 183.486 119.111 184.424 118.769L188.456 122.033ZM158.312 152.433C157.331 151.452 156.179 150.364 154.856 149.169C153.576 147.975 152.232 146.78 150.824 145.585C149.416 144.348 148.094 143.239 146.856 142.257C145.619 141.233 144.552 140.423 143.656 139.825L147.816 136.433C148.542 136.988 149.502 137.756 150.696 138.737C151.891 139.676 153.192 140.743 154.6 141.937C156.051 143.132 157.48 144.348 158.888 145.585C160.296 146.823 161.576 148.017 162.728 149.169C164.094 150.449 165.502 151.857 166.952 153.393C168.446 154.929 169.854 156.423 171.176 157.873C172.499 159.324 173.608 160.625 174.504 161.777L169.832 165.489C169.064 164.38 168.019 163.079 166.696 161.585C165.416 160.049 164.03 158.492 162.536 156.913C161.043 155.292 159.635 153.799 158.312 152.433Z" fill="black"/>
<path d="M100.393 111.345C100.265 112.071 100.158 112.967 100.073 114.033C100.03 115.1 100.009 116.081 100.009 116.977C100.009 117.532 100.009 118.236 100.009 119.089C100.009 119.9 100.009 120.689 100.009 121.457C100.009 122.225 100.009 122.844 100.009 123.313H94.8245C94.8245 122.844 94.8245 122.225 94.8245 121.457C94.8245 120.689 94.8245 119.9 94.8245 119.089C94.8245 118.279 94.8245 117.575 94.8245 116.977C94.8245 116.081 94.8032 115.1 94.7605 114.033C94.7179 112.967 94.6325 112.071 94.5045 111.345H100.393ZM117.929 123.889C117.374 124.487 116.755 125.127 116.073 125.809C115.433 126.492 114.857 127.132 114.345 127.729C113.278 129.052 111.955 130.503 110.377 132.081C108.841 133.66 107.134 135.26 105.257 136.881C103.422 138.46 101.481 139.953 99.4325 141.361C97.1285 142.983 94.6325 144.476 91.9445 145.841C89.2992 147.207 86.4192 148.508 83.3045 149.745C80.1899 150.94 76.7979 152.092 73.1285 153.201L70.0565 148.465C76.1152 147.015 81.2139 145.308 85.3525 143.345C89.5339 141.383 93.0752 139.463 95.9765 137.585C97.8965 136.348 99.6885 135.025 101.353 133.617C103.059 132.167 104.574 130.78 105.897 129.457C107.262 128.092 108.286 126.897 108.969 125.873C108.499 125.873 107.582 125.873 106.217 125.873C104.851 125.873 103.251 125.873 101.417 125.873C99.5819 125.873 97.6619 125.873 95.6565 125.873C93.6512 125.873 91.7312 125.873 89.8965 125.873C88.0619 125.873 86.4619 125.873 85.0965 125.873C83.7739 125.873 82.8779 125.873 82.4085 125.873C81.6832 125.873 80.8085 125.895 79.7845 125.937C78.8032 125.937 77.8432 125.959 76.9045 126.001C76.0085 126.044 75.2192 126.087 74.5365 126.129V120.753C75.6032 120.839 76.8832 120.924 78.3765 121.009C79.9125 121.052 81.2139 121.073 82.2805 121.073C82.7925 121.073 83.7312 121.073 85.0965 121.073C86.5045 121.073 88.1472 121.073 90.0245 121.073C91.9445 121.073 93.9499 121.073 96.0405 121.073C98.1739 121.073 100.222 121.073 102.185 121.073C104.19 121.073 105.918 121.073 107.369 121.073C108.862 121.073 109.929 121.073 110.569 121.073C111.294 121.073 112.019 121.052 112.745 121.009C113.47 120.924 114.089 120.817 114.601 120.689L117.929 123.889ZM99.8805 138.673C99.8805 139.953 99.8805 141.447 99.8805 143.153C99.8805 144.817 99.8592 146.588 99.8165 148.465C99.8165 150.3 99.8165 152.071 99.8165 153.777C99.8165 155.484 99.8165 156.977 99.8165 158.257C99.8165 158.983 99.8379 159.772 99.8805 160.625C99.9232 161.479 99.9659 162.311 100.009 163.121C100.051 163.932 100.094 164.657 100.137 165.297H94.3125C94.3979 164.7 94.4618 163.996 94.5045 163.185C94.5898 162.375 94.6325 161.543 94.6325 160.689C94.6752 159.793 94.6965 158.983 94.6965 158.257C94.6965 157.02 94.6965 155.633 94.6965 154.097C94.6965 152.519 94.6965 150.919 94.6965 149.297C94.7392 147.633 94.7605 146.076 94.7605 144.625C94.7605 143.132 94.7605 141.895 94.7605 140.913L99.8805 138.673ZM120.937 154.033C119.102 152.668 117.374 151.452 115.753 150.385C114.174 149.276 112.574 148.231 110.953 147.249C109.331 146.268 107.518 145.244 105.513 144.177L108.841 140.401C110.846 141.468 112.638 142.449 114.217 143.345C115.838 144.241 117.417 145.18 118.953 146.161C120.531 147.143 122.302 148.316 124.265 149.681L120.937 154.033Z" fill="black"/>
<path d="M20.2645 113.457C21.2032 113.969 22.3125 114.631 23.5925 115.441C24.8725 116.252 26.1952 117.105 27.5605 118.001C28.9258 118.897 30.1845 119.751 31.3365 120.561C32.5312 121.329 33.4698 121.969 34.1525 122.481L31.1445 126.833C30.3765 126.279 29.4165 125.596 28.2645 124.785C27.1125 123.975 25.8752 123.143 24.5525 122.289C23.2298 121.393 21.9285 120.561 20.6485 119.793C19.4112 118.983 18.3232 118.3 17.3845 117.745L20.2645 113.457ZM10.6645 159.217C13.0112 158.791 15.4218 158.236 17.8965 157.553C20.3712 156.828 22.8245 155.996 25.2565 155.057C27.6885 154.076 29.9712 152.967 32.1045 151.729C35.6458 149.681 38.9312 147.42 41.9605 144.945C44.9898 142.471 47.7205 139.825 50.1525 137.009C52.5845 134.193 54.6538 131.292 56.3605 128.305L59.4325 133.553C56.6592 137.863 53.1392 142.001 48.8725 145.969C44.6485 149.937 39.9765 153.436 34.8565 156.465C32.6805 157.703 30.3125 158.855 27.7525 159.921C25.2352 160.945 22.7392 161.841 20.2645 162.609C17.8325 163.377 15.6138 163.975 13.6085 164.401L10.6645 159.217ZM10.6005 127.857C11.5392 128.327 12.6698 128.967 13.9925 129.777C15.3152 130.545 16.6592 131.356 18.0245 132.209C19.3898 133.02 20.6698 133.809 21.8645 134.577C23.0592 135.345 23.9978 135.985 24.6805 136.497L21.7365 140.977C20.9258 140.38 19.9232 139.697 18.7285 138.929C17.5765 138.119 16.3392 137.308 15.0165 136.497C13.6938 135.644 12.3925 134.833 11.1125 134.065C9.83248 133.297 8.72315 132.679 7.78448 132.209L10.6005 127.857Z" fill="black"/>
<path d="M624.001 83.3564V87.3564H0L0 83.3564H624.001Z" fill="black"/>
<path d="M23.8354 18.2895C25.768 20.4935 29.6474 25.3171 29.7047 26.9796H31.1362C31.5776 25.3801 33.126 21.2668 35.7886 17.6094C35.8915 17.7929 35.9988 17.9949 36.1091 18.2139C37.6483 21.2721 39.2696 27.4807 37.3192 32.7554C37.1403 34.1659 36.6261 38.0809 34.8224 38.5948C35.7252 39.0227 35.8376 39.1233 35.5038 39.9392L36.7191 41.2616C42.6957 42.4329 54.0548 48.652 51.6785 64.1581L48.887 67.1808L37.1698 67.1231L36.2418 66.5564L36.0749 66.9919C35.1922 67.4579 33.1761 68.1102 32.174 66.9919H29.8478C29.2156 66.3999 28.3734 65.1103 30.0625 64.6871C30.325 64.6745 30.8642 64.6871 30.9215 64.8382C31.3986 64.7878 32.3673 64.4982 32.4246 63.7425C32.4007 60.0524 32.1383 52.6192 31.2793 52.4076C30.1699 50.9341 28.0083 47.118 28.2374 43.6419L28.5992 41.186L26.6269 43.3019C24.3651 43.725 24.8733 41.715 25.4101 40.6571C24.5512 39.5991 26.1335 38.5948 26.1335 38.5948C25.177 38.1036 22.6842 35.7142 23.6863 32.2079C23.2033 31.7344 22.4208 28.602 23.6863 19.3474C23.7334 19.0031 23.7831 18.6505 23.8354 18.2895Z" fill="black"/>
<path d="M55.8143 56.5748V60.1866C55.8143 60.5896 56.004 60.969 56.3263 61.2107C57.0441 61.7491 58.0787 61.4011 58.3252 60.5383L58.6911 59.2578C58.7724 58.9733 58.7954 58.6754 58.7587 58.3818L58.4776 56.1334C58.369 55.2644 58.1748 54.4082 57.8978 53.5774L57.3143 51.8267L56.6174 49.0394C56.4161 48.234 56.3143 47.4069 56.3143 46.5767V46.4974C56.3143 45.7199 56.4096 44.9453 56.5982 44.1909L56.645 44.004C56.7576 43.5534 56.9121 43.1144 57.1064 42.6926L57.2752 42.3265C57.6301 41.5563 58.1543 40.8744 58.8069 40.3328C58.8118 40.3288 58.8172 40.3252 58.8229 40.3224L59.646 39.9108C59.7568 39.8554 59.8786 39.8257 60.0024 39.8239C60.4527 39.8174 60.8143 39.4505 60.8143 39.0001V38.7043C60.8143 38.1885 60.4632 37.7389 59.9628 37.6138L59.5075 37.5C59.0636 37.389 58.5939 37.4589 58.2015 37.6943L57.04 38.3913C56.5596 38.6795 56.1311 39.0465 55.7725 39.4768L55.3987 39.9254C54.3642 41.1668 53.7077 42.6791 53.5073 44.2826L53.5 44.3411C53.3771 45.3242 53.4241 46.321 53.639 47.2881L54.3143 50.3267L55.4556 54.1312C55.6935 54.924 55.8143 55.7472 55.8143 56.5748Z" fill="black" stroke="black"/>
<path d="M36.2251 17.3652C36.3318 17.5556 36.4429 17.7643 36.5562 17.9893C38.124 21.1046 39.7921 27.4316 37.8071 32.873C37.7157 33.5914 37.5385 34.9256 37.1577 36.1592C36.9625 36.7914 36.7069 37.4228 36.3657 37.9395C36.209 38.1769 36.0252 38.3982 35.815 38.5869C35.9093 38.6658 35.9989 38.7606 36.065 38.8809C36.1852 39.0997 36.1924 39.3258 36.1577 39.5293C36.1414 39.6253 36.1135 39.7245 36.0796 39.8262L36.98 40.8057C40.0468 41.4427 44.387 43.3322 47.7017 46.999C51.0939 50.7518 53.3828 56.3345 52.1724 64.2334L52.1499 64.3848L52.0454 64.4971L49.105 67.6816L37.1675 67.623L37.0278 67.6221L36.9097 67.5498L36.4927 67.2959L36.4741 67.3467L36.3081 67.4336C35.8258 67.6882 35.0407 67.993 34.2241 68.083C33.4825 68.1648 32.6161 68.0766 31.9692 67.4922H29.6499L29.5064 67.3564C29.167 67.0387 28.6993 66.4751 28.5923 65.8623C28.5343 65.5301 28.5793 65.1583 28.8335 64.834C29.0764 64.5242 29.4598 64.3227 29.9409 64.2021L29.9888 64.1904L30.0386 64.1875C30.1869 64.1804 30.4168 64.1804 30.6275 64.2051C30.7302 64.2171 30.8535 64.238 30.9673 64.2783C30.9915 64.2869 31.0187 64.2973 31.0474 64.3105C31.2165 64.2753 31.4165 64.2144 31.5864 64.1191C31.8145 63.9913 31.9073 63.8558 31.9234 63.7197C31.911 61.8811 31.8405 59.1273 31.6665 56.8076C31.5789 55.6402 31.4664 54.5978 31.3257 53.8408C31.2548 53.4593 31.1806 53.172 31.1079 52.9844C31.0874 52.9315 31.0692 52.8936 31.0552 52.8672L30.9868 52.8506L30.8804 52.708C30.301 51.9385 29.4615 50.5797 28.7944 48.9668C28.1291 47.3579 27.6173 45.454 27.7388 43.6094L27.7398 43.5889L27.7427 43.5693L27.8706 42.7002L26.9927 43.6426L26.8804 43.7627L26.7192 43.793C26.1005 43.9087 25.5719 43.8794 25.1646 43.6533C24.7331 43.4138 24.5362 43.011 24.4751 42.6104C24.4163 42.2243 24.4762 41.8118 24.5728 41.4482C24.6425 41.1856 24.737 40.9295 24.8384 40.6992C24.684 40.4157 24.6308 40.1208 24.6636 39.832C24.7049 39.4683 24.8762 39.1602 25.0503 38.9287C25.1319 38.8202 25.2188 38.7215 25.3042 38.6348C24.794 38.2264 24.2004 37.5956 23.7398 36.7773C23.0961 35.6338 22.6984 34.1072 23.1441 32.3086C23.1052 32.2418 23.0692 32.1718 23.0376 32.0996C22.9576 31.9165 22.8844 31.6892 22.8189 31.417C22.6878 30.8725 22.5807 30.1143 22.5308 29.0947C22.431 27.0545 22.5557 23.9246 23.1909 19.2793C23.2382 18.9338 23.2878 18.58 23.3403 18.2178L23.4966 17.1445L24.2114 17.96C25.1849 19.0701 26.6482 20.8396 27.8784 22.5449C28.493 23.3969 29.0569 24.242 29.4722 24.9863C29.6797 25.3584 29.8546 25.7136 29.981 26.0371C30.0388 26.1852 30.0882 26.334 30.1265 26.4795H30.7622C31.3264 24.64 32.8623 20.7797 35.3843 17.3154L35.8433 16.6846L36.2251 17.3652ZM35.6245 40.8096C35.5342 40.9634 35.4394 41.1056 35.3482 41.2344C35.5417 42.5427 35.257 43.4263 34.5913 43.8975C33.9392 44.3588 33.1115 44.2778 32.5991 44.1191L32.4898 44.0859L32.4067 44.0088L29.5444 41.3555C29.4697 41.3932 29.3925 41.4208 29.315 41.4375C29.2289 41.456 29.1442 41.4594 29.064 41.458L28.7349 43.6934C28.632 45.3193 29.0852 47.0543 29.7183 48.585C30.3284 50.0601 31.0908 51.3053 31.6196 52.0244C31.7155 52.0893 31.7876 52.1669 31.8364 52.2334C31.9218 52.3498 31.9878 52.4871 32.0405 52.623C32.1466 52.8968 32.2343 53.2547 32.3091 53.6572C32.4599 54.4687 32.5752 55.5551 32.6636 56.7334C32.8407 59.0948 32.9124 61.8878 32.9243 63.7393V63.7598L32.9234 63.7803C32.8768 64.3947 32.456 64.7775 32.0747 64.9912C31.6923 65.2055 31.2616 65.3056 30.9741 65.3359L30.5903 65.376L30.523 65.2002C30.5191 65.1997 30.5153 65.1987 30.5112 65.1982C30.3924 65.1843 30.2494 65.1825 30.1392 65.1855C29.8089 65.2748 29.6728 65.3846 29.6206 65.4512C29.5777 65.5061 29.5573 65.5736 29.5776 65.6904C29.6199 65.9318 29.8189 66.2377 30.0562 66.4922H31.646C31.6674 66.155 31.7643 65.7834 31.9995 65.4551C32.3435 64.975 32.9116 64.6806 33.7144 64.6572V55.1113L32.397 53.8232L33.0962 53.1084L34.564 54.5439L34.7144 54.6914V65.7354L34.1607 65.6758C33.297 65.5827 32.9573 65.8343 32.812 66.0371C32.667 66.2395 32.6256 66.5161 32.646 66.7559C32.9921 67.0614 33.5041 67.1562 34.1148 67.0889C34.6931 67.025 35.2721 66.8218 35.6763 66.6309L36.2427 65.1562L36.5484 63.9541L37.4985 57.6553L41.436 63.8916L40.6968 64.5449C40.5983 64.4641 40.4161 64.3843 40.1294 64.333C39.8505 64.2832 39.5159 64.2676 39.1548 64.2783C38.5622 64.296 37.9388 64.3843 37.4468 64.4756L37.2036 65.4336L37.1968 65.4619L37.186 65.4893L36.8569 66.3457L37.311 66.623L48.6694 66.6787L51.2046 63.9336C52.3192 56.4065 50.1268 51.173 46.9605 47.6699C43.7554 44.1242 39.5245 42.3207 36.6226 41.752L36.4624 41.7207L35.6245 40.8096ZM37.6392 63.4287C38.0939 63.3566 38.6155 63.2935 39.1255 63.2783C39.3772 63.2708 39.6319 63.276 39.8784 63.2959L38.0864 60.46L37.6392 63.4287ZM36.0952 19.3857C34.9872 21.7578 34.4699 23.5942 34.2759 24.9355C34.1664 25.6928 34.161 26.2867 34.2075 26.7266C34.2551 27.1756 34.3532 27.4343 34.4234 27.5469L33.5747 28.0752C33.3938 27.7848 33.2693 27.3594 33.2134 26.8311C33.1565 26.2934 33.1666 25.615 33.2857 24.792C33.4507 23.6507 33.8249 22.2194 34.5269 20.4805C32.9168 23.2722 31.9468 25.9235 31.6187 27.1123L31.5171 27.4795H29.2212L29.2046 26.9971C29.2003 26.8713 29.1561 26.6748 29.0493 26.4014C28.945 26.1343 28.7925 25.8219 28.5982 25.4736C28.2096 24.7772 27.6717 23.9669 27.0679 23.1299C26.4573 22.2835 25.786 21.4193 25.148 20.6299C25.6909 21.5936 26.1384 22.6474 26.4966 23.6543C27.0705 25.2674 27.4297 26.8001 27.5855 27.7285L27.0923 27.8105L26.5991 27.8936C26.4527 27.021 26.1079 25.5455 25.5542 23.9893C25.1477 22.8467 24.6343 21.6827 24.0181 20.6855C23.5333 24.5956 23.4431 27.2736 23.5298 29.0459C23.5777 30.0251 23.6786 30.7174 23.7905 31.1826C23.8465 31.415 23.9034 31.5833 23.9536 31.6982C24.0004 31.8052 24.0327 31.8455 24.0366 31.8506L24.2485 32.0596L24.1675 32.3457C23.7091 33.9499 24.0478 35.2867 24.6108 36.2871C25.1129 37.1789 25.7831 37.786 26.1997 38.0557L26.3618 38.1504L26.3794 38.1592L26.396 38.1689C26.9954 38.5383 27.9273 38.8996 28.8316 38.873L28.8608 39.8721C27.8571 39.9015 26.8786 39.5665 26.1743 39.1924C26.0678 39.2836 25.9475 39.3985 25.8491 39.5293C25.735 39.6811 25.6716 39.8232 25.6577 39.9453C25.6461 40.0482 25.6642 40.1765 25.7983 40.3418L26.0025 40.5938L25.856 40.8838C25.735 41.1223 25.6159 41.413 25.5386 41.7041C25.4596 42.0016 25.4336 42.2643 25.4634 42.46C25.491 42.6408 25.5575 42.727 25.6499 42.7783C25.754 42.8361 25.9693 42.8917 26.3784 42.835L28.48 40.5811L28.7026 40.3408L29.0122 40.4502C29.0207 40.4531 29.0401 40.4576 29.063 40.46L29.2866 39.7539L32.9946 43.1904C33.3535 43.2794 33.7538 43.2643 34.0132 43.0811C34.2479 42.9149 34.5593 42.4636 34.3306 41.1992L34.2905 40.9805L34.4273 40.8037C34.6346 40.536 34.8769 40.1523 35.0415 39.75C35.1237 39.5491 35.16 39.4336 35.1724 39.3613C35.1729 39.3583 35.172 39.3551 35.1724 39.3525C35.1572 39.34 35.1326 39.32 35.0923 39.2949C35.0356 39.2596 34.9649 39.2219 34.8755 39.1768C34.6385 39.3147 34.3611 39.4024 34.1001 39.4629C33.6889 39.5581 33.2067 39.614 32.7241 39.6533C31.7163 39.7354 30.7423 39.7501 30.0689 39.8652L29.9849 39.3721L29.8999 38.8799C30.6265 38.7557 31.7454 38.7294 32.6431 38.6562C33.1129 38.618 33.5364 38.5675 33.8745 38.4893C34.236 38.4055 34.4031 38.3099 34.4575 38.252L34.5523 38.1514L34.6851 38.1143C34.9765 38.0312 35.261 37.797 35.5308 37.3887C35.7988 36.9828 36.0215 36.4511 36.2026 35.8643C36.5647 34.6914 36.7331 33.3993 36.8228 32.6924L36.8306 32.6357L36.8501 32.582C38.5526 27.9778 37.4366 22.5885 36.0952 19.3857ZM30.0308 34.2725C30.3178 34.2134 30.6773 34.2293 31.1167 34.3496L31.7095 34.5117L31.4302 35.0586C31.3679 35.1808 31.2562 35.351 31.104 35.498C30.96 35.6372 30.7097 35.8232 30.3765 35.8232H30.3433L30.311 35.8184C30.0783 35.7876 29.7213 35.6237 29.4214 35.2676L29.1968 35.001L29.3687 34.6982C29.5009 34.4655 29.7595 34.3283 30.0308 34.2725Z" fill="black"/>
</svg>
